<mxfile host="app.diagrams.net" modified="2022-02-11T10:21:12.513Z" agent="5.0 (Macintosh; Intel Mac OS X 10_15_7) AppleWebKit/537.36 (KHTML, like Gecko) Chrome/98.0.4758.80 Safari/537.36" etag="qcPFp5j0ImBEurZKpcb4" version="16.2.7" type="github">
  <diagram id="e93w7AdVd9-gRIOB8hyh" name="Page-1">
    <mxGraphModel dx="786" dy="546" grid="1" gridSize="10" guides="1" tooltips="1" connect="1" arrows="1" fold="1" page="1" pageScale="1" pageWidth="1654" pageHeight="2336" math="0" shadow="0">
      <root>
        <mxCell id="0" />
        <mxCell id="1" parent="0" />
        <mxCell id="YfPQtyVQfAjrMFXqJ8i2-1" value="weak_table" style="text;html=1;align=center;verticalAlign=middle;resizable=0;points=[];autosize=1;strokeColor=none;fillColor=none;" vertex="1" parent="1">
          <mxGeometry x="500" y="140" width="80" height="20" as="geometry" />
        </mxCell>
        <mxCell id="YfPQtyVQfAjrMFXqJ8i2-2" value="" style="rounded=1;whiteSpace=wrap;html=1;comic=1;fillColor=#ffe6cc;strokeColor=#d79b00;" vertex="1" parent="1">
          <mxGeometry x="480" y="160" width="120" height="280" as="geometry" />
        </mxCell>
        <mxCell id="YfPQtyVQfAjrMFXqJ8i2-3" value="weak_entry" style="rounded=1;whiteSpace=wrap;html=1;comic=1;fillColor=#d5e8d4;strokeColor=#82b366;" vertex="1" parent="1">
          <mxGeometry x="490" y="168" width="100" height="42" as="geometry" />
        </mxCell>
        <mxCell id="YfPQtyVQfAjrMFXqJ8i2-4" value="&lt;span&gt;weak_entry&lt;/span&gt;" style="text;html=1;align=center;verticalAlign=middle;resizable=0;points=[];autosize=1;strokeColor=none;fillColor=none;" vertex="1" parent="1">
          <mxGeometry x="750" y="141" width="80" height="20" as="geometry" />
        </mxCell>
        <mxCell id="YfPQtyVQfAjrMFXqJ8i2-5" value="" style="rounded=1;whiteSpace=wrap;html=1;comic=1;fillColor=#d5e8d4;strokeColor=#82b366;" vertex="1" parent="1">
          <mxGeometry x="730" y="161" width="120" height="280" as="geometry" />
        </mxCell>
        <mxCell id="YfPQtyVQfAjrMFXqJ8i2-6" value="weak_referrer_t" style="rounded=1;whiteSpace=wrap;html=1;comic=1;fillColor=#f8cecc;strokeColor=#b85450;" vertex="1" parent="1">
          <mxGeometry x="740" y="169" width="100" height="42" as="geometry" />
        </mxCell>
        <mxCell id="YfPQtyVQfAjrMFXqJ8i2-7" value="weak_entry" style="rounded=1;whiteSpace=wrap;html=1;comic=1;fillColor=#d5e8d4;strokeColor=#82b366;" vertex="1" parent="1">
          <mxGeometry x="490" y="220" width="100" height="42" as="geometry" />
        </mxCell>
        <mxCell id="YfPQtyVQfAjrMFXqJ8i2-8" value="weak_entry" style="rounded=1;whiteSpace=wrap;html=1;comic=1;fillColor=#d5e8d4;strokeColor=#82b366;" vertex="1" parent="1">
          <mxGeometry x="490" y="270" width="100" height="42" as="geometry" />
        </mxCell>
        <mxCell id="YfPQtyVQfAjrMFXqJ8i2-9" value="weak_referrer_t" style="rounded=1;whiteSpace=wrap;html=1;comic=1;fillColor=#f8cecc;strokeColor=#b85450;" vertex="1" parent="1">
          <mxGeometry x="740" y="221" width="100" height="42" as="geometry" />
        </mxCell>
        <mxCell id="YfPQtyVQfAjrMFXqJ8i2-10" value="weak_referrer_t" style="rounded=1;whiteSpace=wrap;html=1;comic=1;fillColor=#f8cecc;strokeColor=#b85450;" vertex="1" parent="1">
          <mxGeometry x="740" y="271" width="100" height="42" as="geometry" />
        </mxCell>
        <mxCell id="YfPQtyVQfAjrMFXqJ8i2-11" value="weak_referrer_t" style="rounded=1;whiteSpace=wrap;html=1;comic=1;fillColor=#f8cecc;strokeColor=#b85450;" vertex="1" parent="1">
          <mxGeometry x="740" y="321" width="100" height="42" as="geometry" />
        </mxCell>
        <mxCell id="YfPQtyVQfAjrMFXqJ8i2-12" value="weak_referrer_t" style="rounded=1;whiteSpace=wrap;html=1;comic=1;fillColor=#f8cecc;strokeColor=#b85450;" vertex="1" parent="1">
          <mxGeometry x="740" y="371" width="100" height="42" as="geometry" />
        </mxCell>
        <mxCell id="YfPQtyVQfAjrMFXqJ8i2-13" value="" style="shape=flexArrow;endArrow=classic;html=1;rounded=0;fillColor=#e1d5e7;strokeColor=#9673a6;" edge="1" parent="1">
          <mxGeometry width="50" height="50" relative="1" as="geometry">
            <mxPoint x="614" y="241" as="sourcePoint" />
            <mxPoint x="714" y="240" as="targetPoint" />
          </mxGeometry>
        </mxCell>
      </root>
    </mxGraphModel>
  </diagram>
</mxfile>
